<svg xmlns="http://www.w3.org/2000/svg" width="1200" height="630" viewBox="0 0 1200 630">
  <rect width="1200" height="630" fill="#0A0A14"/>
  <!-- Subtle gradient glow -->
  <circle cx="600" cy="315" r="400" fill="url(#og-glow)" opacity="0.4"/>
  <defs>
    <radialGradient id="og-glow">
      <stop offset="0%" stop-color="#E84A8A" stop-opacity="0.15"/>
      <stop offset="60%" stop-color="#C9A84C" stop-opacity="0.05"/>
      <stop offset="100%" stop-color="transparent" stop-opacity="0"/>
    </radialGradient>
  </defs>
  <!-- Carl the Camel (centered, larger) -->
  <g transform="translate(500, 120) scale(2.8)">
    <ellipse cx="36" cy="38" rx="22" ry="16" fill="#E84A8A"/>
    <ellipse cx="27" cy="24" rx="8" ry="6" fill="#E84A8A"/>
    <ellipse cx="45" cy="24" rx="8" ry="6" fill="#E84A8A"/>
    <path d="M16 34 Q10 28, 12 18" stroke="#E84A8A" stroke-width="8" stroke-linecap="round" fill="none"/>
    <path d="M16 34 Q10 28, 12 18" stroke="#F06B9E" stroke-width="5" stroke-linecap="round" fill="none"/>
    <ellipse cx="11" cy="14" rx="9" ry="7" fill="#E84A8A"/>
    <ellipse cx="5" cy="16" rx="4" ry="3" fill="#D44080"/>
    <circle cx="9" cy="12" r="3" fill="white"/>
    <circle cx="15" cy="11" r="2.5" fill="white"/>
    <circle cx="9.8" cy="12.2" r="1.8" fill="#0A0A14"/>
    <circle cx="15.5" cy="11.3" r="1.4" fill="#0A0A14"/>
    <circle cx="10.5" cy="11.2" r="0.7" fill="white"/>
    <circle cx="16" cy="10.5" r="0.5" fill="white"/>
    <circle cx="4" cy="14" r="0.8" fill="#C73D75"/>
    <circle cx="4" cy="16" r="0.8" fill="#C73D75"/>
    <ellipse cx="5" cy="8" rx="2" ry="3" fill="#E84A8A" transform="rotate(-15 5 8)"/>
    <ellipse cx="17" cy="7" rx="2" ry="3" fill="#E84A8A" transform="rotate(15 17 7)"/>
    <path d="M3 10 Q11 7, 19 9" stroke="#4ECDC4" stroke-width="2.5" stroke-linecap="round" fill="none"/>
    <line x1="22" y1="50" x2="20" y2="62" stroke="#E84A8A" stroke-width="4" stroke-linecap="round"/>
    <line x1="30" y1="52" x2="29" y2="62" stroke="#E84A8A" stroke-width="4" stroke-linecap="round"/>
    <line x1="42" y1="52" x2="43" y2="62" stroke="#E84A8A" stroke-width="4" stroke-linecap="round"/>
    <line x1="50" y1="50" x2="52" y2="62" stroke="#E84A8A" stroke-width="4" stroke-linecap="round"/>
    <ellipse cx="19" cy="63" rx="4" ry="2" fill="#4ECDC4"/>
    <ellipse cx="28" cy="63" rx="4" ry="2" fill="#4ECDC4"/>
    <ellipse cx="44" cy="63" rx="4" ry="2" fill="#4ECDC4"/>
    <ellipse cx="53" cy="63" rx="4" ry="2" fill="#4ECDC4"/>
    <path d="M58 36 Q64 32, 66 36 Q68 40, 64 38" stroke="#E84A8A" stroke-width="2.5" stroke-linecap="round" fill="none"/>
    <circle cx="66" cy="36" r="2" fill="#D44080"/>
    <circle cx="3" cy="18" r="2" fill="#F4A261" opacity="0.35"/>
  </g>
  <!-- Marathon text -->
  <text x="600" y="500" text-anchor="middle" font-family="Inter, -apple-system, sans-serif" font-size="48" font-weight="800" fill="#F0F0F5">Marathon</text>
  <!-- Tagline -->
  <text x="600" y="550" text-anchor="middle" font-family="Inter, -apple-system, sans-serif" font-size="24" fill="#AAAABB">Build Your Growth Moat</text>
  <!-- Badge -->
  <rect x="530" y="565" width="140" height="28" rx="14" fill="rgba(78, 205, 196, 0.12)" stroke="rgba(78, 205, 196, 0.25)" stroke-width="1"/>
  <text x="600" y="584" text-anchor="middle" font-family="Inter, -apple-system, sans-serif" font-size="12" font-weight="600" fill="#4ECDC4">AI-Powered</text>
</svg>
